<svg width="17" height="15" viewBox="0 0 17 15" fill="none" xmlns="http://www.w3.org/2000/svg">
<path d="M7.49727 14.5918L7.41426 14.5129L1.59707 8.93178C0.577734 7.95414 0 6.58202 0 5.14472V5.03152C0 2.61658 1.66016 0.544676 3.95781 0.0918751C5.26602 -0.168828 6.6041 0.14333 7.66992 0.91858C7.96875 1.13812 8.24766 1.39196 8.5 1.68354C8.63945 1.51888 8.78887 1.36795 8.94824 1.22731C9.07109 1.11754 9.19727 1.01463 9.33008 0.91858C10.3959 0.14333 11.734 -0.168828 13.0422 0.0884449C15.3398 0.541246 17 2.61658 17 5.03152V5.14472C17 6.58202 16.4223 7.95414 15.4029 8.93178L9.58574 14.5129L9.50273 14.5918C9.23047 14.8525 8.87187 15 8.5 15C8.12813 15 7.76953 14.8559 7.49727 14.5918ZM7.93887 3.50503C7.92559 3.49474 7.91563 3.48102 7.90566 3.4673L7.31465 2.78124L7.31133 2.77781C6.54434 1.88936 5.38555 1.48458 4.25664 1.70755C2.70938 2.01285 1.59375 3.40555 1.59375 5.03152V5.14472C1.59375 6.12236 1.98887 7.05883 2.68281 7.72431L8.5 13.3054L14.3172 7.72431C15.0111 7.05883 15.4062 6.12236 15.4062 5.14472V5.03152C15.4062 3.40898 14.2906 2.01285 12.7467 1.70755C11.6178 1.48458 10.4557 1.89279 9.69199 2.77781C9.69199 2.77781 9.69199 2.77781 9.68867 2.78124C9.68535 2.78467 9.68867 2.78124 9.68535 2.78467L9.09434 3.47073C9.08438 3.48445 9.07109 3.49474 9.06113 3.50846C8.91172 3.66283 8.70918 3.74858 8.5 3.74858C8.29082 3.74858 8.08828 3.66283 7.93887 3.50846V3.50503Z" fill="#502314"/>
</svg>
