<svg width="40" height="40" viewBox="0 0 40 40" fill="none" xmlns="http://www.w3.org/2000/svg">
<path d="M33.9955 29.8884C33.6682 27.5818 33.0171 25.6659 32.0424 24.1406C31.0677 22.6153 29.6949 21.7336 27.9241 21.4955C26.9271 22.5967 25.7403 23.4561 24.3638 24.0737C22.9874 24.6912 21.5327 25 20 25C18.4673 25 17.0126 24.6912 15.6362 24.0737C14.2597 23.4561 13.0729 22.5967 12.0759 21.4955C10.3051 21.7336 8.93229 22.6153 7.95759 24.1406C6.98289 25.6659 6.33185 27.5818 6.00446 29.8884C7.58185 32.1205 9.59821 33.8876 12.0536 35.1897C14.5089 36.4918 17.1577 37.1429 20 37.1429C22.8423 37.1429 25.4911 36.4918 27.9464 35.1897C30.4018 33.8876 32.4182 32.1205 33.9955 29.8884ZM26.0603 20.346C26.0603 20.346 26.4788 19.9275 27.3158 19.0904C28.1529 18.2533 28.5714 16.6518 28.5714 14.2857C28.5714 11.9196 27.7344 9.89955 26.0603 8.22544C24.3862 6.55134 22.3661 5.71429 20 5.71429C17.6339 5.71429 15.6138 6.55134 13.9397 8.22544C12.2656 9.89955 11.4286 11.9196 11.4286 14.2857C11.4286 16.6518 12.2656 18.6719 13.9397 20.346C15.6138 22.0201 17.6339 22.8571 20 22.8571C22.3661 22.8571 24.3862 22.0201 26.0603 20.346ZM38.4152 12.2321C38.4152 12.2321 38.6793 12.8497 39.2076 14.0848C39.7359 15.3199 40 17.2917 40 20C40 22.7083 39.4717 25.2939 38.4152 27.7567C37.3586 30.2195 35.9412 32.3475 34.1629 34.1406C32.3847 35.9338 30.2604 37.3586 27.7902 38.4152C25.3199 39.4717 22.7232 40 20 40C17.2917 40 14.7024 39.4717 12.2321 38.4152C9.7619 37.3586 7.63393 35.9375 5.84821 34.1518C4.0625 32.3661 2.64137 30.2381 1.58482 27.7679C0.528274 25.2976 0 22.7083 0 20C0 17.2917 0.528274 14.7024 1.58482 12.2321C2.64137 9.7619 4.0625 7.63393 5.84821 5.84821C7.63393 4.0625 9.7619 2.64137 12.2321 1.58482C14.7024 0.528275 17.2917 0 20 0C22.7083 0 25.2976 0.528275 27.7679 1.58482C30.2381 2.64137 32.3661 4.0625 34.1518 5.84821C35.9375 7.63393 37.3586 9.7619 38.4152 12.2321Z" fill="#502314"/>
</svg>
